<svg width="162" height="36" viewBox="0 0 162 36" fill="none" xmlns="http://www.w3.org/2000/svg">
<path d="M10.536 17.816L7.08 10.856H6.936V35H0.936V1.496H7.896L17.976 18.68L21.432 25.64H21.576V1.496H27.576V35H20.616L10.536 17.816ZM60.588 35.576C58.38 35.576 56.38 35.208 54.588 34.472C52.796 33.736 51.26 32.632 49.98 31.16C48.732 29.688 47.756 27.88 47.052 25.736C46.348 23.592 45.996 21.096 45.996 18.248C45.996 15.432 46.348 12.952 47.052 10.808C47.756 8.632 48.732 6.808 49.98 5.336C51.26 3.864 52.796 2.76 54.588 2.024C56.38 1.288 58.38 0.919998 60.588 0.919998C62.796 0.919998 64.796 1.288 66.588 2.024C68.38 2.76 69.916 3.864 71.196 5.336C72.476 6.808 73.452 8.632 74.124 10.808C74.828 12.952 75.18 15.432 75.18 18.248C75.18 21.096 74.828 23.592 74.124 25.736C73.452 27.88 72.476 29.688 71.196 31.16C69.916 32.632 68.38 33.736 66.588 34.472C64.796 35.208 62.796 35.576 60.588 35.576ZM60.588 29.96C62.988 29.96 64.892 29.16 66.3 27.56C67.74 25.96 68.46 23.72 68.46 20.84V15.656C68.46 12.776 67.74 10.536 66.3 8.936C64.892 7.336 62.988 6.536 60.588 6.536C58.188 6.536 56.268 7.336 54.828 8.936C53.42 10.536 52.716 12.776 52.716 15.656V20.84C52.716 23.72 53.42 25.96 54.828 27.56C56.268 29.16 58.188 29.96 60.588 29.96ZM100.165 35L89.2211 1.496H95.7011L100.837 17.816L103.813 28.952H103.957L106.885 17.816L112.021 1.496H118.309L107.365 35H100.165ZM146.932 35.576C144.724 35.576 142.724 35.208 140.932 34.472C139.14 33.736 137.604 32.632 136.324 31.16C135.076 29.688 134.1 27.88 133.396 25.736C132.692 23.592 132.34 21.096 132.34 18.248C132.34 15.432 132.692 12.952 133.396 10.808C134.1 8.632 135.076 6.808 136.324 5.336C137.604 3.864 139.14 2.76 140.932 2.024C142.724 1.288 144.724 0.919998 146.932 0.919998C149.14 0.919998 151.14 1.288 152.932 2.024C154.724 2.76 156.26 3.864 157.54 5.336C158.82 6.808 159.796 8.632 160.468 10.808C161.172 12.952 161.524 15.432 161.524 18.248C161.524 21.096 161.172 23.592 160.468 25.736C159.796 27.88 158.82 29.688 157.54 31.16C156.26 32.632 154.724 33.736 152.932 34.472C151.14 35.208 149.14 35.576 146.932 35.576ZM146.932 29.96C149.332 29.96 151.236 29.16 152.644 27.56C154.084 25.96 154.804 23.72 154.804 20.84V15.656C154.804 12.776 154.084 10.536 152.644 8.936C151.236 7.336 149.332 6.536 146.932 6.536C144.532 6.536 142.612 7.336 141.172 8.936C139.764 10.536 139.06 12.776 139.06 15.656V20.84C139.06 23.72 139.764 25.96 141.172 27.56C142.612 29.16 144.532 29.96 146.932 29.96Z" fill="white"/>
</svg>
