<svg width="23" height="23" viewBox="0 0 23 23" fill="none" xmlns="http://www.w3.org/2000/svg">
<path fill-rule="evenodd" clip-rule="evenodd" d="M15.9723 4.7658C19.0745 7.86799 19.0745 12.8976 15.9723 15.9998C12.8702 19.102 7.84052 19.102 4.73833 15.9998C1.63614 12.8976 1.63614 7.86799 4.73833 4.7658C7.84052 1.66361 12.8702 1.66361 15.9723 4.7658ZM17.7293 16.2839C20.7042 12.5758 20.4721 7.14422 17.033 3.70514C13.345 0.0171678 7.36564 0.017168 3.67767 3.70514C-0.0103056 7.39312 -0.0103053 13.3725 3.67767 17.0605C7.21977 20.6026 12.8756 20.7427 16.5849 17.4808L21.015 21.9109C21.2103 22.1061 21.5268 22.1061 21.7221 21.9109L22.1856 21.4473C22.3809 21.252 22.3809 20.9355 22.1856 20.7402L17.7293 16.2839Z" fill="#252525"/>
</svg>
