<?xml version="1.0" encoding="UTF-8" standalone="no"?><svg xmlns:svg="http://www.w3.org/2000/svg" xmlns="http://www.w3.org/2000/svg" xmlns:xlink="http://www.w3.org/1999/xlink" version="1.0" width="64px" height="64px" viewBox="0 0 128 128" xml:space="preserve"><g><path d="M61.5 0h5a25.8 25.8 0 0 1 5.25 9 26.35 26.35 0 0 1 1.3 10.8l-5 .1A23.38 23.38 0 0 0 67 10a32.3 32.3 0 0 0-5.5-10z" fill="#e6f5f0"/><path d="M61.5 0h5a25.8 25.8 0 0 1 5.25 9 26.35 26.35 0 0 1 1.3 10.8l-5 .1A23.38 23.38 0 0 0 67 10a32.3 32.3 0 0 0-5.5-10z" fill="#e0f2ec" transform="rotate(15 64 64)"/><path d="M61.5 0h5a25.8 25.8 0 0 1 5.25 9 26.35 26.35 0 0 1 1.3 10.8l-5 .1A23.38 23.38 0 0 0 67 10a32.3 32.3 0 0 0-5.5-10z" fill="#d9efe7" transform="rotate(30 64 64)"/><path d="M61.5 0h5a25.8 25.8 0 0 1 5.25 9 26.35 26.35 0 0 1 1.3 10.8l-5 .1A23.38 23.38 0 0 0 67 10a32.3 32.3 0 0 0-5.5-10z" fill="#d1ece2" transform="rotate(45 64 64)"/><path d="M61.5 0h5a25.8 25.8 0 0 1 5.25 9 26.35 26.35 0 0 1 1.3 10.8l-5 .1A23.38 23.38 0 0 0 67 10a32.3 32.3 0 0 0-5.5-10z" fill="#c8e8dd" transform="rotate(60 64 64)"/><path d="M61.5 0h5a25.8 25.8 0 0 1 5.25 9 26.35 26.35 0 0 1 1.3 10.8l-5 .1A23.38 23.38 0 0 0 67 10a32.3 32.3 0 0 0-5.5-10z" fill="#bfe5d7" transform="rotate(75 64 64)"/><path d="M61.5 0h5a25.8 25.8 0 0 1 5.25 9 26.35 26.35 0 0 1 1.3 10.8l-5 .1A23.38 23.38 0 0 0 67 10a32.3 32.3 0 0 0-5.5-10z" fill="#b5e1d1" transform="rotate(90 64 64)"/><path d="M61.5 0h5a25.8 25.8 0 0 1 5.25 9 26.35 26.35 0 0 1 1.3 10.8l-5 .1A23.38 23.38 0 0 0 67 10a32.3 32.3 0 0 0-5.5-10z" fill="#a9dcca" transform="rotate(105 64 64)"/><path d="M61.5 0h5a25.8 25.8 0 0 1 5.25 9 26.35 26.35 0 0 1 1.3 10.8l-5 .1A23.38 23.38 0 0 0 67 10a32.3 32.3 0 0 0-5.5-10z" fill="#a9dcca" transform="rotate(120 64 64)"/><path d="M61.5 0h5a25.8 25.8 0 0 1 5.25 9 26.35 26.35 0 0 1 1.3 10.8l-5 .1A23.38 23.38 0 0 0 67 10a32.3 32.3 0 0 0-5.5-10z" fill="#93d3bc" transform="rotate(135 64 64)"/><path d="M61.5 0h5a25.8 25.8 0 0 1 5.25 9 26.35 26.35 0 0 1 1.3 10.8l-5 .1A23.38 23.38 0 0 0 67 10a32.3 32.3 0 0 0-5.5-10z" fill="#86cdb4" transform="rotate(150 64 64)"/><path d="M61.5 0h5a25.8 25.8 0 0 1 5.25 9 26.35 26.35 0 0 1 1.3 10.8l-5 .1A23.38 23.38 0 0 0 67 10a32.3 32.3 0 0 0-5.5-10z" fill="#7ac8ad" transform="rotate(165 64 64)"/><path d="M61.5 0h5a25.8 25.8 0 0 1 5.25 9 26.35 26.35 0 0 1 1.3 10.8l-5 .1A23.38 23.38 0 0 0 67 10a32.3 32.3 0 0 0-5.5-10z" fill="#6ec3a5" transform="rotate(180 64 64)"/><path d="M61.5 0h5a25.8 25.8 0 0 1 5.25 9 26.35 26.35 0 0 1 1.3 10.8l-5 .1A23.38 23.38 0 0 0 67 10a32.3 32.3 0 0 0-5.5-10z" fill="#62be9e" transform="rotate(195 64 64)"/><path d="M61.5 0h5a25.8 25.8 0 0 1 5.25 9 26.35 26.35 0 0 1 1.3 10.8l-5 .1A23.38 23.38 0 0 0 67 10a32.3 32.3 0 0 0-5.5-10z" fill="#56b996" transform="rotate(210 64 64)"/><path d="M61.5 0h5a25.8 25.8 0 0 1 5.25 9 26.35 26.35 0 0 1 1.3 10.8l-5 .1A23.38 23.38 0 0 0 67 10a32.3 32.3 0 0 0-5.5-10z" fill="#4bb58f" transform="rotate(225 64 64)"/><path d="M61.5 0h5a25.8 25.8 0 0 1 5.25 9 26.35 26.35 0 0 1 1.3 10.8l-5 .1A23.38 23.38 0 0 0 67 10a32.3 32.3 0 0 0-5.5-10z" fill="#3fb088" transform="rotate(240 64 64)"/><path d="M61.5 0h5a25.8 25.8 0 0 1 5.25 9 26.35 26.35 0 0 1 1.3 10.8l-5 .1A23.38 23.38 0 0 0 67 10a32.3 32.3 0 0 0-5.5-10z" fill="#34ab81" transform="rotate(255 64 64)"/><path d="M61.5 0h5a25.8 25.8 0 0 1 5.25 9 26.35 26.35 0 0 1 1.3 10.8l-5 .1A23.38 23.38 0 0 0 67 10a32.3 32.3 0 0 0-5.5-10z" fill="#2aa77b" transform="rotate(270 64 64)"/><path d="M61.5 0h5a25.8 25.8 0 0 1 5.25 9 26.35 26.35 0 0 1 1.3 10.8l-5 .1A23.38 23.38 0 0 0 67 10a32.3 32.3 0 0 0-5.5-10z" fill="#20a375" transform="rotate(285 64 64)"/><path d="M61.5 0h5a25.8 25.8 0 0 1 5.25 9 26.35 26.35 0 0 1 1.3 10.8l-5 .1A23.38 23.38 0 0 0 67 10a32.3 32.3 0 0 0-5.5-10z" fill="#179f6f" transform="rotate(300 64 64)"/><path d="M61.5 0h5a25.8 25.8 0 0 1 5.25 9 26.35 26.35 0 0 1 1.3 10.8l-5 .1A23.38 23.38 0 0 0 67 10a32.3 32.3 0 0 0-5.5-10z" fill="#109d6b" transform="rotate(315 64 64)"/><path d="M61.5 0h5a25.8 25.8 0 0 1 5.25 9 26.35 26.35 0 0 1 1.3 10.8l-5 .1A23.38 23.38 0 0 0 67 10a32.3 32.3 0 0 0-5.5-10z" fill="#099a67" transform="rotate(330 64 64)"/><path d="M61.5 0h5a25.8 25.8 0 0 1 5.25 9 26.35 26.35 0 0 1 1.3 10.8l-5 .1A23.38 23.38 0 0 0 67 10a32.3 32.3 0 0 0-5.5-10z" fill="#009661" transform="rotate(345 64 64)"/><animateTransform attributeName="transform" type="rotate" values="0 64 64;15 64 64;30 64 64;45 64 64;60 64 64;75 64 64;90 64 64;105 64 64;120 64 64;135 64 64;150 64 64;165 64 64;180 64 64;195 64 64;210 64 64;225 64 64;240 64 64;255 64 64;270 64 64;285 64 64;300 64 64;315 64 64;330 64 64;345 64 64" calcMode="discrete" dur="1200ms" repeatCount="indefinite"></animateTransform></g></svg>